<svg xmlns="http://www.w3.org/2000/svg" viewBox="0 0 1000 600">
  <!-- 背景渐变 -->
  <defs>
    <linearGradient id="bgGradient" x1="0%" y1="0%" x2="100%" y2="100%">
      <stop offset="0%" stop-color="#0a2a27" />
      <stop offset="100%" stop-color="#144a45" />
    </linearGradient>
    
    <!-- 服务器列渐变 -->
    <linearGradient id="serverGradient" x1="0%" y1="0%" x2="100%" y2="0%">
      <stop offset="0%" stop-color="#1a5e57" />
      <stop offset="100%" stop-color="#0f3d38" />
    </linearGradient>
    
    <!-- 光束效果 -->
    <linearGradient id="lightBeam" x1="50%" y1="0%" x2="50%" y2="100%">
      <stop offset="0%" stop-color="#50aa9c" stop-opacity="0.6" />
      <stop offset="100%" stop-color="#50aa9c" stop-opacity="0.1" />
    </linearGradient>
  </defs>
  
  <!-- 背景 -->
  <rect width="100%" height="100%" fill="url(#bgGradient)" />
  
  <!-- 光束 -->
  <rect x="450" y="0" width="100" height="600" fill="url(#lightBeam)" />
  
  <!-- 网格地板 -->
  <g opacity="0.3">
    <path d="M0,500 L1000,500" stroke="#50aa9c" stroke-width="1" />
    <path d="M0,520 L1000,520" stroke="#50aa9c" stroke-width="1" />
    <path d="M0,540 L1000,540" stroke="#50aa9c" stroke-width="1" />
    <path d="M0,560 L1000,560" stroke="#50aa9c" stroke-width="1" />
    <path d="M0,580 L1000,580" stroke="#50aa9c" stroke-width="1" />
    <path d="M0,600 L1000,600" stroke="#50aa9c" stroke-width="1" />
    
    <path d="M100,500 L100,600" stroke="#50aa9c" stroke-width="1" />
    <path d="M200,500 L200,600" stroke="#50aa9c" stroke-width="1" />
    <path d="M300,500 L300,600" stroke="#50aa9c" stroke-width="1" />
    <path d="M400,500 L400,600" stroke="#50aa9c" stroke-width="1" />
    <path d="M500,500 L500,600" stroke="#50aa9c" stroke-width="1" />
    <path d="M600,500 L600,600" stroke="#50aa9c" stroke-width="1" />
    <path d="M700,500 L700,600" stroke="#50aa9c" stroke-width="1" />
    <path d="M800,500 L800,600" stroke="#50aa9c" stroke-width="1" />
    <path d="M900,500 L900,600" stroke="#50aa9c" stroke-width="1" />
  </g>
  
  <!-- 左侧服务器列 -->
  <g transform="translate(50, 50)">
    <!-- 服务器单元 -->
    <rect width="80" height="400" fill="url(#serverGradient)" rx="2" ry="2" />
    
    <!-- 服务器指示灯 -->
    <rect x="10" y="60" width="60" height="5" fill="#50aa9c" opacity="0.7" />
    <rect x="10" y="120" width="60" height="5" fill="#50aa9c" opacity="0.5" />
    <rect x="10" y="180" width="60" height="5" fill="#50aa9c" opacity="0.8" />
    <rect x="10" y="240" width="60" height="5" fill="#50aa9c" opacity="0.6" />
    <rect x="10" y="300" width="60" height="5" fill="#50aa9c" opacity="0.9" />
    <rect x="10" y="360" width="60" height="5" fill="#50aa9c" opacity="0.4" />
  </g>
  
  <!-- 左二服务器列 -->
  <g transform="translate(150, 80)">
    <rect width="80" height="370" fill="url(#serverGradient)" rx="2" ry="2" />
    
    <rect x="10" y="40" width="60" height="5" fill="#50aa9c" opacity="0.6" />
    <rect x="10" y="100" width="60" height="5" fill="#50aa9c" opacity="0.7" />
    <rect x="10" y="160" width="60" height="5" fill="#50aa9c" opacity="0.5" />
    <rect x="10" y="220" width="60" height="5" fill="#50aa9c" opacity="0.8" />
    <rect x="10" y="280" width="60" height="5" fill="#50aa9c" opacity="0.6" />
    <rect x="10" y="340" width="60" height="5" fill="#50aa9c" opacity="0.7" />
  </g>
  
  <!-- 左三服务器列 -->
  <g transform="translate(250, 110)">
    <rect width="80" height="340" fill="url(#serverGradient)" rx="2" ry="2" />
    
    <rect x="10" y="30" width="60" height="5" fill="#50aa9c" opacity="0.5" />
    <rect x="10" y="90" width="60" height="5" fill="#50aa9c" opacity="0.6" />
    <rect x="10" y="150" width="60" height="5" fill="#50aa9c" opacity="0.7" />
    <rect x="10" y="210" width="60" height="5" fill="#50aa9c" opacity="0.4" />
    <rect x="10" y="270" width="60" height="5" fill="#50aa9c" opacity="0.6" />
    <rect x="10" y="330" width="60" height="5" fill="#50aa9c" opacity="0.5" />
  </g>
  
  <!-- 右侧服务器列 -->
  <g transform="translate(870, 50)">
    <rect width="80" height="400" fill="url(#serverGradient)" rx="2" ry="2" />
    
    <rect x="10" y="60" width="60" height="5" fill="#50aa9c" opacity="0.7" />
    <rect x="10" y="120" width="60" height="5" fill="#50aa9c" opacity="0.5" />
    <rect x="10" y="180" width="60" height="5" fill="#50aa9c" opacity="0.8" />
    <rect x="10" y="240" width="60" height="5" fill="#50aa9c" opacity="0.6" />
    <rect x="10" y="300" width="60" height="5" fill="#50aa9c" opacity="0.9" />
    <rect x="10" y="360" width="60" height="5" fill="#50aa9c" opacity="0.4" />
  </g>
  
  <!-- 右二服务器列 -->
  <g transform="translate(770, 80)">
    <rect width="80" height="370" fill="url(#serverGradient)" rx="2" ry="2" />
    
    <rect x="10" y="40" width="60" height="5" fill="#50aa9c" opacity="0.6" />
    <rect x="10" y="100" width="60" height="5" fill="#50aa9c" opacity="0.7" />
    <rect x="10" y="160" width="60" height="5" fill="#50aa9c" opacity="0.5" />
    <rect x="10" y="220" width="60" height="5" fill="#50aa9c" opacity="0.8" />
    <rect x="10" y="280" width="60" height="5" fill="#50aa9c" opacity="0.6" />
    <rect x="10" y="340" width="60" height="5" fill="#50aa9c" opacity="0.7" />
  </g>
  
  <!-- 右三服务器列 -->
  <g transform="translate(670, 110)">
    <rect width="80" height="340" fill="url(#serverGradient)" rx="2" ry="2" />
    
    <rect x="10" y="30" width="60" height="5" fill="#50aa9c" opacity="0.5" />
    <rect x="10" y="90" width="60" height="5" fill="#50aa9c" opacity="0.6" />
    <rect x="10" y="150" width="60" height="5" fill="#50aa9c" opacity="0.7" />
    <rect x="10" y="210" width="60" height="5" fill="#50aa9c" opacity="0.4" />
    <rect x="10" y="270" width="60" height="5" fill="#50aa9c" opacity="0.6" />
    <rect x="10" y="330" width="60" height="5" fill="#50aa9c" opacity="0.5" />
  </g>
  
  <!-- 光点效果 -->
  <circle cx="200" cy="100" r="1" fill="#50aa9c" opacity="0.8" />
  <circle cx="350" cy="80" r="1.5" fill="#50aa9c" opacity="0.9" />
  <circle cx="420" cy="120" r="1" fill="#50aa9c" opacity="0.7" />
  <circle cx="550" cy="70" r="1.2" fill="#50aa9c" opacity="1" />
  <circle cx="630" cy="140" r="1" fill="#50aa9c" opacity="0.8" />
  <circle cx="780" cy="90" r="1.3" fill="#50aa9c" opacity="0.9" />
  <circle cx="220" cy="590" r="1" fill="#50aa9c" opacity="0.8" />
  <circle cx="380" cy="570" r="1.2" fill="#50aa9c" opacity="0.9" />
  <circle cx="490" cy="580" r="1.5" fill="#50aa9c" opacity="1" />
  <circle cx="620" cy="560" r="1" fill="#50aa9c" opacity="0.7" />
  <circle cx="750" cy="590" r="1.2" fill="#50aa9c" opacity="0.8" />
  <circle cx="300" cy="600" r="1" fill="#50aa9c" opacity="0.6" />
  <circle cx="520" cy="540" r="1" fill="#50aa9c" opacity="0.7" />
  <circle cx="680" cy="570" r="1.3" fill="#50aa9c" opacity="0.9" />
</svg>
    